{
	"patcher" : 	{
		"fileversion" : 1,
		"appversion" : 		{
			"major" : 8,
			"minor" : 1,
			"revision" : 8,
			"architecture" : "x64",
			"modernui" : 1
		}
,
		"classnamespace" : "dsp.gen",
		"rect" : [ 830.0, 197.0, 756.0, 639.0 ],
		"bglocked" : 0,
		"openinpresentation" : 0,
		"default_fontsize" : 12.0,
		"default_fontface" : 0,
		"default_fontname" : "Arial",
		"gridonopen" : 1,
		"gridsize" : [ 15.0, 15.0 ],
		"gridsnaponopen" : 1,
		"objectsnaponopen" : 1,
		"statusbarvisible" : 2,
		"toolbarvisible" : 1,
		"lefttoolbarpinned" : 0,
		"toptoolbarpinned" : 0,
		"righttoolbarpinned" : 0,
		"bottomtoolbarpinned" : 0,
		"toolbars_unpinned_last_save" : 0,
		"tallnewobj" : 0,
		"boxanimatetime" : 200,
		"enablehscroll" : 1,
		"enablevscroll" : 1,
		"devicewidth" : 0.0,
		"description" : "",
		"digest" : "",
		"tags" : "",
		"style" : "",
		"subpatcher_template" : "Default Max 7",
		"assistshowspatchername" : 0,
		"boxes" : [ 			{
				"box" : 				{
					"id" : "obj-24",
					"maxclass" : "newobj",
					"numinlets" : 1,
					"numoutlets" : 1,
					"outlettype" : [ "" ],
					"patching_rect" : [ 225.0, 189.5, 106.0, 22.0 ],
					"text" : "* srbuf/samplerate"
				}

			}
, 			{
				"box" : 				{
					"id" : "obj-12",
					"maxclass" : "newobj",
					"numinlets" : 0,
					"numoutlets" : 1,
					"outlettype" : [ "" ],
					"patching_rect" : [ 95.0, 189.5, 109.0, 22.0 ],
					"text" : "param srbuf 44100"
				}

			}
, 			{
				"box" : 				{
					"fontname" : "Lato",
					"id" : "obj-23",
					"maxclass" : "comment",
					"numinlets" : 1,
					"numoutlets" : 0,
					"patching_rect" : [ 581.0, 499.0, 99.0, 21.0 ],
					"text" : "length in samples"
				}

			}
, 			{
				"box" : 				{
					"id" : "obj-22",
					"maxclass" : "newobj",
					"numinlets" : 1,
					"numoutlets" : 0,
					"patching_rect" : [ 544.0, 499.0, 35.0, 22.0 ],
					"text" : "out 2"
				}

			}
, 			{
				"box" : 				{
					"fontname" : "Lato",
					"id" : "obj-21",
					"linecount" : 2,
					"maxclass" : "comment",
					"numinlets" : 1,
					"numoutlets" : 0,
					"patching_rect" : [ 20.0, 47.0, 167.0, 35.0 ],
					"text" : "@jitbuf (buffername)\n@chans (number-of-channels)"
				}

			}
, 			{
				"box" : 				{
					"fontname" : "Lato",
					"fontsize" : 24.0,
					"id" : "obj-20",
					"maxclass" : "comment",
					"numinlets" : 1,
					"numoutlets" : 0,
					"patching_rect" : [ 20.0, 10.0, 325.0, 35.0 ],
					"text" : "mc.poke~"
				}

			}
, 			{
				"box" : 				{
					"fontname" : "Lato",
					"id" : "obj-19",
					"maxclass" : "comment",
					"numinlets" : 1,
					"numoutlets" : 0,
					"patching_rect" : [ 20.0, 523.0, 167.0, 21.0 ],
					"text" : "channel as per gen-instance"
				}

			}
, 			{
				"box" : 				{
					"fontname" : "Lato",
					"id" : "obj-18",
					"maxclass" : "comment",
					"numinlets" : 1,
					"numoutlets" : 0,
					"patching_rect" : [ 280.5, 499.0, 92.0, 21.0 ],
					"text" : "samples written"
				}

			}
, 			{
				"box" : 				{
					"fontname" : "Lato",
					"id" : "obj-17",
					"maxclass" : "comment",
					"numinlets" : 1,
					"numoutlets" : 0,
					"patching_rect" : [ 504.0, 166.5, 41.0, 21.0 ],
					"text" : "buffer"
				}

			}
, 			{
				"box" : 				{
					"fontname" : "Lato",
					"id" : "obj-16",
					"linecount" : 2,
					"maxclass" : "comment",
					"numinlets" : 1,
					"numoutlets" : 0,
					"patching_rect" : [ 255.0, 98.0, 167.0, 35.0 ],
					"text" : "0 = idle\n1 = record"
				}

			}
, 			{
				"box" : 				{
					"fontname" : "Lato",
					"id" : "obj-15",
					"maxclass" : "comment",
					"numinlets" : 1,
					"numoutlets" : 0,
					"patching_rect" : [ 51.0, 98.0, 167.0, 21.0 ],
					"text" : "multichannel-signal to write"
				}

			}
, 			{
				"box" : 				{
					"id" : "obj-11",
					"maxclass" : "newobj",
					"numinlets" : 1,
					"numoutlets" : 1,
					"outlettype" : [ "" ],
					"patching_rect" : [ 267.5, 417.0, 37.0, 22.0 ],
					"text" : ">= 0"
				}

			}
, 			{
				"box" : 				{
					"id" : "obj-9",
					"maxclass" : "newobj",
					"numinlets" : 2,
					"numoutlets" : 1,
					"outlettype" : [ "" ],
					"patching_rect" : [ 241.5, 454.0, 45.0, 22.0 ],
					"text" : "latch"
				}

			}
, 			{
				"box" : 				{
					"id" : "obj-3",
					"maxclass" : "newobj",
					"numinlets" : 1,
					"numoutlets" : 0,
					"patching_rect" : [ 241.5, 499.0, 35.0, 22.0 ],
					"text" : "out 1"
				}

			}
, 			{
				"box" : 				{
					"id" : "obj-8",
					"maxclass" : "newobj",
					"numinlets" : 1,
					"numoutlets" : 1,
					"outlettype" : [ "" ],
					"patching_rect" : [ 124.5, 293.0, 31.0, 22.0 ],
					"text" : "!= 0"
				}

			}
, 			{
				"box" : 				{
					"id" : "obj-4",
					"maxclass" : "newobj",
					"numinlets" : 2,
					"numoutlets" : 1,
					"outlettype" : [ "" ],
					"patching_rect" : [ 107.0, 327.0, 36.5, 22.0 ],
					"text" : "||"
				}

			}
, 			{
				"box" : 				{
					"id" : "obj-2",
					"maxclass" : "newobj",
					"numinlets" : 2,
					"numoutlets" : 1,
					"outlettype" : [ "" ],
					"patching_rect" : [ 364.5, 189.5, 29.5, 22.0 ],
					"text" : "=="
				}

			}
, 			{
				"box" : 				{
					"id" : "obj-14",
					"maxclass" : "newobj",
					"numinlets" : 0,
					"numoutlets" : 1,
					"outlettype" : [ "" ],
					"patching_rect" : [ 166.0, 327.0, 20.0, 22.0 ],
					"text" : "-1"
				}

			}
, 			{
				"box" : 				{
					"id" : "obj-13",
					"maxclass" : "newobj",
					"numinlets" : 3,
					"numoutlets" : 1,
					"outlettype" : [ "" ],
					"patching_rect" : [ 107.0, 373.0, 137.0, 22.0 ],
					"text" : "?"
				}

			}
, 			{
				"box" : 				{
					"id" : "obj-10",
					"maxclass" : "newobj",
					"numinlets" : 0,
					"numoutlets" : 1,
					"outlettype" : [ "" ],
					"patching_rect" : [ 225.0, 98.0, 28.0, 22.0 ],
					"text" : "in 2"
				}

			}
, 			{
				"box" : 				{
					"id" : "obj-7",
					"maxclass" : "newobj",
					"numinlets" : 3,
					"numoutlets" : 0,
					"patching_rect" : [ 20.0, 499.0, 193.0, 22.0 ],
					"text" : "poke jitbuf mc_channel-1"
				}

			}
, 			{
				"box" : 				{
					"id" : "obj-6",
					"maxclass" : "newobj",
					"numinlets" : 3,
					"numoutlets" : 3,
					"outlettype" : [ "", "", "" ],
					"patching_rect" : [ 225.0, 246.0, 298.0, 22.0 ],
					"text" : "counter"
				}

			}
, 			{
				"box" : 				{
					"id" : "obj-5",
					"maxclass" : "newobj",
					"numinlets" : 0,
					"numoutlets" : 2,
					"outlettype" : [ "", "" ],
					"patching_rect" : [ 504.0, 189.5, 71.0, 22.0 ],
					"text" : "buffer jitbuf"
				}

			}
, 			{
				"box" : 				{
					"id" : "obj-1",
					"maxclass" : "newobj",
					"numinlets" : 0,
					"numoutlets" : 1,
					"outlettype" : [ "" ],
					"patching_rect" : [ 20.0, 98.0, 28.0, 22.0 ],
					"text" : "in 1"
				}

			}
 ],
		"lines" : [ 			{
				"patchline" : 				{
					"destination" : [ "obj-7", 0 ],
					"source" : [ "obj-1", 0 ]
				}

			}
, 			{
				"patchline" : 				{
					"destination" : [ "obj-2", 0 ],
					"midpoints" : [ 234.5, 166.75, 374.0, 166.75 ],
					"order" : 0,
					"source" : [ "obj-10", 0 ]
				}

			}
, 			{
				"patchline" : 				{
					"destination" : [ "obj-24", 0 ],
					"order" : 1,
					"source" : [ "obj-10", 0 ]
				}

			}
, 			{
				"patchline" : 				{
					"destination" : [ "obj-9", 1 ],
					"source" : [ "obj-11", 0 ]
				}

			}
, 			{
				"patchline" : 				{
					"destination" : [ "obj-11", 0 ],
					"midpoints" : [ 116.5, 404.5, 277.0, 404.5 ],
					"order" : 0,
					"source" : [ "obj-13", 0 ]
				}

			}
, 			{
				"patchline" : 				{
					"destination" : [ "obj-7", 1 ],
					"order" : 2,
					"source" : [ "obj-13", 0 ]
				}

			}
, 			{
				"patchline" : 				{
					"destination" : [ "obj-9", 0 ],
					"midpoints" : [ 116.5, 423.0, 251.0, 423.0 ],
					"order" : 1,
					"source" : [ "obj-13", 0 ]
				}

			}
, 			{
				"patchline" : 				{
					"destination" : [ "obj-13", 1 ],
					"source" : [ "obj-14", 0 ]
				}

			}
, 			{
				"patchline" : 				{
					"destination" : [ "obj-4", 0 ],
					"midpoints" : [ 374.0, 233.25, 116.5, 233.25 ],
					"order" : 1,
					"source" : [ "obj-2", 0 ]
				}

			}
, 			{
				"patchline" : 				{
					"destination" : [ "obj-6", 1 ],
					"order" : 0,
					"source" : [ "obj-2", 0 ]
				}

			}
, 			{
				"patchline" : 				{
					"destination" : [ "obj-6", 0 ],
					"source" : [ "obj-24", 0 ]
				}

			}
, 			{
				"patchline" : 				{
					"destination" : [ "obj-13", 0 ],
					"source" : [ "obj-4", 0 ]
				}

			}
, 			{
				"patchline" : 				{
					"destination" : [ "obj-22", 0 ],
					"midpoints" : [ 513.5, 228.25, 553.5, 228.25 ],
					"order" : 0,
					"source" : [ "obj-5", 0 ]
				}

			}
, 			{
				"patchline" : 				{
					"destination" : [ "obj-6", 2 ],
					"order" : 1,
					"source" : [ "obj-5", 0 ]
				}

			}
, 			{
				"patchline" : 				{
					"destination" : [ "obj-13", 2 ],
					"source" : [ "obj-6", 0 ]
				}

			}
, 			{
				"patchline" : 				{
					"destination" : [ "obj-8", 0 ],
					"midpoints" : [ 513.5, 279.0, 134.0, 279.0 ],
					"source" : [ "obj-6", 2 ]
				}

			}
, 			{
				"patchline" : 				{
					"destination" : [ "obj-4", 1 ],
					"source" : [ "obj-8", 0 ]
				}

			}
, 			{
				"patchline" : 				{
					"destination" : [ "obj-3", 0 ],
					"source" : [ "obj-9", 0 ]
				}

			}
 ],
		"styles" : [ 			{
				"name" : "AudioStatus_Menu",
				"default" : 				{
					"bgfillcolor" : 					{
						"type" : "color",
						"color" : [ 0.294118, 0.313726, 0.337255, 1 ],
						"color1" : [ 0.454902, 0.462745, 0.482353, 0.0 ],
						"color2" : [ 0.290196, 0.309804, 0.301961, 1.0 ],
						"angle" : 270.0,
						"proportion" : 0.39,
						"autogradient" : 0
					}

				}
,
				"parentstyle" : "",
				"multi" : 0
			}
, 			{
				"name" : "Xenorama",
				"default" : 				{
					"patchlinecolor" : [ 1.0, 0.984314, 0.870588, 0.741017 ],
					"fontname" : [ "Theinhardt Light" ],
					"bgfillcolor" : 					{
						"type" : "gradient",
						"color1" : [ 0.376471, 0.384314, 0.4, 1.0 ],
						"color2" : [ 0.290196, 0.309804, 0.301961, 1.0 ],
						"color" : [ 0.290196, 0.309804, 0.301961, 1.0 ],
						"angle" : 270.0,
						"proportion" : 0.39
					}
,
					"color" : [ 0.937255, 0.763913, 0.302615, 1.0 ],
					"textcolor" : [ 1.0, 0.984314, 0.870588, 1.0 ]
				}
,
				"parentstyle" : "",
				"multi" : 0
			}
, 			{
				"name" : "livid_sysex",
				"default" : 				{
					"accentcolor" : [ 0.596078, 0.174761, 0.100412, 1.0 ],
					"textcolor_inverse" : [ 0.683327, 0.922818, 0.83347, 1.0 ]
				}
,
				"parentstyle" : "",
				"multi" : 0
			}
, 			{
				"name" : "oni",
				"umenu" : 				{
					"color" : [ 0.376471, 0.384314, 0.4, 1.0 ],
					"elementcolor" : [ 0.376471, 0.384314, 0.4, 1.0 ],
					"textcolor_inverse" : [ 1.0, 0.984314, 0.870588, 1.0 ]
				}
,
				"button" : 				{
					"color" : [ 1.0, 0.741176, 0.196078, 1.0 ],
					"elementcolor" : [ 0.4, 0.486275, 0.505882, 1.0 ]
				}
,
				"parentstyle" : "oni_default-1",
				"multi" : 1
			}
, 			{
				"name" : "oni_default",
				"newobj" : 				{
					"bgcolor" : [ 0.937255, 0.898039, 0.0, 1.0 ],
					"accentcolor" : [ 0.501961, 0.501961, 0.0, 1.0 ],
					"textcolor_inverse" : [ 0.0, 0.0, 0.0, 1.0 ]
				}
,
				"slider" : 				{
					"bgcolor" : [ 0.4, 0.486275, 0.505882, 1.0 ]
				}
,
				"umenu" : 				{
					"bgfillcolor" : 					{
						"type" : "color",
						"color1" : [ 0.376471, 0.384314, 0.4, 1.0 ],
						"color2" : [ 0.290196, 0.309804, 0.301961, 1.0 ],
						"color" : [ 0.290196, 0.309804, 0.301961, 1.0 ],
						"angle" : 270.0,
						"proportion" : 0.39,
						"autogradient" : 0
					}
,
					"color" : [ 0.4, 0.486275, 0.505882, 1.0 ],
					"textcolor_inverse" : [ 1.0, 0.984314, 0.870588, 1.0 ]
				}
,
				"number" : 				{
					"accentcolor" : [ 0.4, 0.486275, 0.505882, 1.0 ],
					"selectioncolor" : [ 1.0, 0.741176, 0.196078, 1.0 ],
					"textcolor_inverse" : [ 1.0, 0.984314, 0.870588, 1.0 ]
				}
,
				"textbutton" : 				{
					"color" : [ 1.0, 0.741176, 0.196078, 1.0 ],
					"selectioncolor" : [ 1.0, 0.741176, 0.196078, 0.66 ]
				}
,
				"panel" : 				{
					"color" : [ 0.803922, 0.898039, 0.909804, 1.0 ]
				}
,
				"button" : 				{
					"color" : [ 1.0, 0.741176, 0.196078, 1.0 ],
					"elementcolor" : [ 0.4, 0.486275, 0.505882, 1.0 ]
				}
,
				"dial" : 				{
					"elementcolor" : [ 0.376471, 0.384314, 0.4, 1.0 ]
				}
,
				"parentstyle" : "",
				"multi" : 1
			}
, 			{
				"name" : "oni_default-1",
				"textbutton" : 				{
					"bgcolor" : [ 0.25098, 0.25098, 0.25098, 1.0 ],
					"fontname" : [ "Futura Std Book" ],
					"accentcolor" : [ 0.4, 0.486275, 0.505882, 1.0 ],
					"color" : [ 1.0, 0.741176, 0.196078, 1.0 ],
					"selectioncolor" : [ 0.968627, 0.768627, 0.101961, 0.509804 ],
					"elementcolor" : [ 0.25098, 0.25098, 0.25098, 1.0 ]
				}
,
				"dial" : 				{
					"bgcolor" : [ 0.875413, 0.933282, 0.915502, 0.0 ],
					"color" : [ 1.0, 0.741176, 0.196078, 1.0 ],
					"elementcolor" : [ 0.376471, 0.384314, 0.4, 1.0 ]
				}
,
				"slider" : 				{
					"bgcolor" : [ 1.0, 1.0, 1.0, 1.0 ],
					"color" : [ 1.0, 0.741176, 0.196078, 1.0 ]
				}
,
				"button" : 				{
					"bgcolor" : [ 0.25098, 0.25098, 0.25098, 0.0 ],
					"color" : [ 1.0, 0.101961, 0.305882, 1.0 ],
					"elementcolor" : [ 1.0, 0.101961, 0.305882, 1.0 ]
				}
,
				"preset" : 				{
					"bgcolor" : [ 0.25098, 0.25098, 0.25098, 1.0 ],
					"fontname" : [ "Futura Std Book" ],
					"accentcolor" : [ 0.411765, 0.568627, 0.588235, 0.71 ],
					"color" : [ 1.0, 0.741176, 0.196078, 1.0 ],
					"elementcolor" : [ 0.431373, 0.431373, 0.431373, 0.46 ],
					"textcolor" : [ 1.0, 0.995412, 0.945192, 1.0 ]
				}
,
				"number" : 				{
					"fontname" : [ "Futura Std Book" ],
					"fontsize" : [ 12.0 ]
				}
,
				"umenu" : 				{
					"fontname" : [ "Futura Std Book" ],
					"bgfillcolor" : 					{
						"type" : "color",
						"color1" : [ 0.376471, 0.384314, 0.4, 1.0 ],
						"color2" : [ 0.290196, 0.309804, 0.301961, 1.0 ],
						"color" : [ 0.25098, 0.25098, 0.25098, 1.0 ],
						"angle" : 270.0,
						"proportion" : 0.39,
						"autogradient" : 0
					}
,
					"textcolor_inverse" : [ 1.0, 0.998287, 0.929809, 1.0 ]
				}
,
				"tab" : 				{
					"fontname" : [ "Futura Std Book" ],
					"color" : [ 1.0, 0.741176, 0.196078, 0.84 ],
					"elementcolor" : [ 0.6, 0.6, 0.6, 0.15 ],
					"textcolor_inverse" : [ 0.400043, 0.485168, 0.504775, 1.0 ]
				}
,
				"comment" : 				{
					"fontname" : [ "Futura Std Book" ],
					"textjustification" : [ 2 ],
					"textcolor" : [ 1.0, 0.998287, 0.929809, 1.0 ],
					"fontsize" : [ 12.0 ]
				}
,
				"panel" : 				{
					"bgfillcolor" : 					{
						"type" : "gradient",
						"color1" : [ 0.25098, 0.25098, 0.25098, 1.0 ],
						"color2" : [ 0.25098, 0.25098, 0.25098, 1.0 ],
						"color" : [ 0.290196, 0.309804, 0.301961, 1.0 ],
						"angle" : 270.0,
						"proportion" : 0.39
					}
,
					"color" : [ 0.803922, 0.898039, 0.909804, 1.0 ]
				}
,
				"parentstyle" : "",
				"multi" : 1
			}
, 			{
				"name" : "oni_default-2",
				"textbutton" : 				{
					"bgcolor" : [ 0.25098, 0.25098, 0.25098, 1.0 ],
					"fontname" : [ "Futura Std Book" ],
					"accentcolor" : [ 0.4, 0.486275, 0.505882, 1.0 ],
					"color" : [ 1.0, 0.741176, 0.196078, 1.0 ],
					"selectioncolor" : [ 0.968627, 0.768627, 0.101961, 0.509804 ],
					"elementcolor" : [ 0.25098, 0.25098, 0.25098, 1.0 ]
				}
,
				"number" : 				{
					"fontname" : [ "Futura Std Book" ],
					"selectioncolor" : [ 1.0, 0.741176, 0.196078, 1.0 ],
					"textcolor_inverse" : [ 1.0, 0.984314, 0.870588, 1.0 ]
				}
,
				"comment" : 				{
					"fontname" : [ "Futura Std Book" ],
					"textjustification" : [ 2 ],
					"textcolor" : [ 1.0, 0.998287, 0.929809, 1.0 ],
					"fontsize" : [ 12.0 ]
				}
,
				"parentstyle" : "",
				"multi" : 1
			}
, 			{
				"name" : "oni_default-3",
				"textbutton" : 				{
					"bgcolor" : [ 0.25098, 0.25098, 0.25098, 1.0 ],
					"fontname" : [ "Futura Std Book" ],
					"accentcolor" : [ 0.4, 0.486275, 0.505882, 1.0 ],
					"color" : [ 1.0, 0.741176, 0.196078, 1.0 ],
					"selectioncolor" : [ 0.968627, 0.768627, 0.101961, 0.509804 ],
					"elementcolor" : [ 0.25098, 0.25098, 0.25098, 1.0 ]
				}
,
				"number" : 				{
					"fontname" : [ "Futura Std Book" ],
					"selectioncolor" : [ 1.0, 0.741176, 0.196078, 1.0 ],
					"textcolor_inverse" : [ 1.0, 0.984314, 0.870588, 1.0 ]
				}
,
				"comment" : 				{
					"fontname" : [ "Futura Std Book" ],
					"textjustification" : [ 2 ],
					"textcolor" : [ 1.0, 0.998287, 0.929809, 1.0 ],
					"fontsize" : [ 12.0 ]
				}
,
				"parentstyle" : "",
				"multi" : 1
			}
, 			{
				"name" : "oni_default-4",
				"textbutton" : 				{
					"bgcolor" : [ 0.25098, 0.25098, 0.25098, 1.0 ],
					"fontname" : [ "Futura Std Book" ],
					"accentcolor" : [ 0.4, 0.486275, 0.505882, 1.0 ],
					"color" : [ 1.0, 0.741176, 0.196078, 1.0 ],
					"selectioncolor" : [ 0.968627, 0.768627, 0.101961, 0.509804 ],
					"elementcolor" : [ 0.25098, 0.25098, 0.25098, 1.0 ]
				}
,
				"number" : 				{
					"fontname" : [ "Futura Std Book" ],
					"selectioncolor" : [ 1.0, 0.741176, 0.196078, 1.0 ],
					"textcolor_inverse" : [ 1.0, 0.984314, 0.870588, 1.0 ]
				}
,
				"comment" : 				{
					"fontname" : [ "Futura Std Book" ],
					"textjustification" : [ 2 ],
					"textcolor" : [ 1.0, 0.998287, 0.929809, 1.0 ],
					"fontsize" : [ 12.0 ]
				}
,
				"parentstyle" : "",
				"multi" : 1
			}
, 			{
				"name" : "oni_default-5",
				"textbutton" : 				{
					"bgcolor" : [ 0.25098, 0.25098, 0.25098, 1.0 ],
					"fontname" : [ "Futura Std Book" ],
					"accentcolor" : [ 0.4, 0.486275, 0.505882, 1.0 ],
					"color" : [ 1.0, 0.741176, 0.196078, 1.0 ],
					"selectioncolor" : [ 0.968627, 0.768627, 0.101961, 0.509804 ],
					"elementcolor" : [ 0.25098, 0.25098, 0.25098, 1.0 ]
				}
,
				"number" : 				{
					"fontname" : [ "Futura Std Book" ],
					"selectioncolor" : [ 1.0, 0.741176, 0.196078, 1.0 ],
					"textcolor_inverse" : [ 1.0, 0.984314, 0.870588, 1.0 ]
				}
,
				"comment" : 				{
					"fontname" : [ "Futura Std Book" ],
					"textjustification" : [ 2 ],
					"textcolor" : [ 1.0, 0.998287, 0.929809, 1.0 ],
					"fontsize" : [ 12.0 ]
				}
,
				"parentstyle" : "",
				"multi" : 1
			}
, 			{
				"name" : "patcherargs",
				"default" : 				{
					"bgcolor" : [ 0.545098, 0.85098, 0.592157, 1.0 ],
					"accentcolor" : [ 0.054902, 0.341176, 0.498039, 1.0 ],
					"textcolor_inverse" : [ 0.0, 0.0, 0.0, 1.0 ]
				}
,
				"parentstyle" : "",
				"multi" : 0
			}
, 			{
				"name" : "pattr001",
				"newobj" : 				{
					"bgcolor" : [ 0.937255, 0.898039, 0.0, 1.0 ],
					"accentcolor" : [ 0.501961, 0.501961, 0.0, 1.0 ],
					"textcolor_inverse" : [ 0.0, 0.0, 0.0, 1.0 ]
				}
,
				"parentstyle" : "",
				"multi" : 1
			}
, 			{
				"name" : "pattr_inv",
				"default" : 				{
					"bgcolor" : [ 0.545098, 0.85098, 0.592157, 1.0 ],
					"accentcolor" : [ 0.356495, 0.111353, 0.074435, 1.0 ],
					"textcolor_inverse" : [ 0.0, 0.0, 0.0, 1.0 ]
				}
,
				"parentstyle" : "",
				"multi" : 0
			}
, 			{
				"name" : "tap",
				"default" : 				{
					"fontname" : [ "Lato Light" ]
				}
,
				"parentstyle" : "",
				"multi" : 0
			}
, 			{
				"name" : "thisdevice",
				"default" : 				{
					"bgcolor" : [ 0.937255, 0.796078, 0.0, 1.0 ],
					"accentcolor" : [ 0.501961, 0.501961, 0.0, 1.0 ],
					"textcolor_inverse" : [ 0.0, 0.0, 0.0, 1.0 ]
				}
,
				"parentstyle" : "",
				"multi" : 0
			}
 ]
	}

}
